<svg xmlns="http://www.w3.org/2000/svg" width="558.9" height="319.5" viewBox="0 0 558.9 319.5"><title>Asset 1</title><path d="M23.4,316.9C-22,252.2,3.9,187.2,56.2,150.3S49.4,35.2,155.3,3.6C210-12.7,258.2,31.8,311.9,33.7,360,35.5,409.8-3.8,458.6,14.4c32.7,10.5,65.3,39.9,62.9,75-1.3,18.2-12.4,39.7-.9,53.5,48.7,58.3,43.7,109.2,24.6,173.2Z" style="fill:#e3eaff"/><path d="M545.6,319.3H18.5a1.9,1.9,0,0,1-1.9-1.9h0a1.9,1.9,0,0,1,1.9-1.9H545.6a1.9,1.9,0,0,1,1.9,1.9h0A1.9,1.9,0,0,1,545.6,319.3Z" style="fill:#95a6db"/><path d="M218.3,141.7c-8.4-2.4-26.4,5.2-21.5,35.9s28.1,25.6,28.1,25.6,10.1-3.2,11-22.7S232.4,145.7,218.3,141.7Z"/><path d="M214,182.7a46.1,46.1,0,0,1-27.7,8.1c-3.3-6.4,3.5-9.6,3.5-9.6l13.2-6a10,10,0,0,1,8.7,1.5C215.2,179.4,214,182.7,214,182.7Z" style="fill:#4364cc"/><path d="M202.3,165.7s-4.2,10-6.7,16c-1,2.4-4.7,9.2-9.3,9.1-4.1-4.4,1.4-16.8,13.9-27.1A16.5,16.5,0,0,0,202.3,165.7Z" style="fill:#f37a50"/><path d="M201.7,170l-4.1-2a1.1,1.1,0,0,1-.5-1.5l4.3-8.8a1.7,1.7,0,0,1,1.9-.6l3.7,2.1a1.1,1.1,0,0,1,.5,1.5l-3.7,8.9A1.6,1.6,0,0,1,201.7,170Z" style="fill:#8a284c"/><rect x="197.2" y="160.2" width="12" height="6.8" rx="1.1" ry="1.1" transform="translate(-33.2 273.8) rotate(-63.8)" style="fill:#e62552"/><rect x="198.6" y="160.2" width="9.7" height="5.71" rx="0.9" ry="0.9" transform="translate(-32.5 273.8) rotate(-63.8)" style="fill:#3b1120"/><circle cx="200.9" cy="168.1" r="0.6" transform="translate(-6 328.9) rotate(-77.8)" style="fill:#8a284c"/><path d="M198,164h.2a1.5,1.5,0,0,1,.2-2.1h.3a1.3,1.3,0,0,1,.5-1.4h.5a1.3,1.3,0,0,1,.5-1.4,1.5,1.5,0,0,1,1.5,2.5h-.5a1.4,1.4,0,0,1-.3,1.8h-.3a1.3,1.3,0,0,1-.5,1.4h-.5a1.1,1.1,0,0,1-.4,1.3A1.2,1.2,0,0,1,198,164Z" style="fill:#f37a50"/><path d="M210.9,169.6l6.3-.9-.5,5.8s-3.2,5.7-6.2,4.7a2.3,2.3,0,0,1-1.5-3.5Z" style="fill:#f37a50"/><ellipse cx="212.5" cy="158.6" rx="12.6" ry="9.9" transform="translate(24.4 345.5) rotate(-81.6)" style="fill:#f37a50"/><path d="M216.4,158.2h-.2a2.7,2.7,0,0,0-2.1-1,.4.4,0,0,1,0-.7,3.4,3.4,0,0,1,2.7,1.3.4.4,0,0,1-.1.5Z"/><path d="M204.3,158h-.1a.4.4,0,0,1,0-.5,2.5,2.5,0,0,1,2.4-.8.4.4,0,0,1-.2.7,1.8,1.8,0,0,0-1.7.6Z"/><path d="M209.3,160.9a9.1,9.1,0,0,1-1.3,1.5.4.4,0,0,0-.1.5,4.9,4.9,0,0,0,2.3,1.3.1.1,0,0,0,.1-.2,4.7,4.7,0,0,1-1.2-1.2.4.4,0,0,1,0-.4l.5-1.4A.2.2,0,0,0,209.3,160.9Z" style="fill:#de623c"/><path d="M213.8,166.1a.3.3,0,0,0-.3-.4l-2.7.3h-2.7a.3.3,0,0,0-.2.5,3.6,3.6,0,0,0,5.9-.4Z" style="fill:#fff"/><path d="M224.5,159.5c-6.4-.3-14.8-6.2-15.8-9.4.9-4.1,4.1-6.4,7.9-4.9S226.7,154.2,224.5,159.5Z"/><path d="M210.1,151.7s-3.8,3.9-7.7,4.8c1.4-4.5,2.3-7.9,4.6-9.1a15.5,15.5,0,0,1,4.9-1.3Z"/><ellipse cx="222.4" cy="160.8" rx="3" ry="2.4" transform="translate(-50 194.5) rotate(-42.9)" style="fill:#f37a50"/><path d="M221.8,162.4h-.1a1.6,1.6,0,0,1-.3-2,1.7,1.7,0,0,1,1.8-.8.4.4,0,0,1-.2.7,1,1,0,0,0-1,.5.9.9,0,0,0,.2,1.1.4.4,0,0,1,0,.5Z" style="fill:#de623c"/><circle cx="214.6" cy="159.3" r="1.1"/><circle cx="206.6" cy="159.3" r="1.1"/><path d="M205.1,301.6c.4-4.2-1.7-36.1-1.7-36.1-6.1-28.1-3.7-48.2-3.7-48.2l10.5.7,4.1,15.9-2,26.5s.7,2,1.1,3.7c2.1,8.8,0,19.4-1.3,26.5-.6,3.3-1.5,10.1-1.6,11.7l2.6,3.4s-9.6,10.6-11,10.7-2-2.7-2-2.7C204.1,309.6,204.9,302.8,205.1,301.6Z" style="fill:#f37a50"/><path d="M213.4,309.4l-.5,6.8h-1.2L211,310c-3.3.8-5.6,6.7-5.6,6.7-2.2.8-7.9,1.4-10,.3-.5-2,4.7-3.4,4.7-3.4s3.2,1,4.2.4c3.6-3.1,5.4-7.6,6.2-11.8C210.6,302.3,216.3,302.7,213.4,309.4Z" style="fill:#e62552"/><path d="M208.6,219.4l14.8-2c5.7,12.8,7.5,35.2,9.1,43.1,6.2,10.4,8.1,41.8,8.1,41.8l2.6,3.4s-9.6,10.6-11,10.7-2-2.7-2-2.7c3.9-4,4.7-9.4,5-10.6s-12-36.6-12-36.6l-1.3-3.3c-15.1-25-17.6-43.9-17.6-43.9Z" style="fill:#f37a50"/><path d="M243.5,309.4l-.5,6.8h-1.2l-.6-6.3c-3.3.8-5.6,6.7-5.6,6.7-2.2.8-7.9,1.4-10,.3-.5-2,4.7-3.4,4.7-3.4s3.2,1,4.2.4c3.6-3.1,5.4-7.6,6.2-11.8C240.7,302.3,246.4,302.7,243.5,309.4Z" style="fill:#e62552"/><path d="M236.2,259c-1.5-5-.8-40.4-13.9-50.1l-22.5,2.4c-5.2,8.4-3.3,30.3-1.5,48.3C208.8,263.4,217.2,264.9,236.2,259Z" style="fill:#070635"/><path d="M199.5,205.8c0-4.9-4.3-12.3-2.2-17.3s4.4-13,7.6-13.6c1.3-.2,2.7,0,4.5-.5,0,0-.9,4.2,1.2,4.3,4.1.3,6.2-4.9,6.2-4.9,2.2-.2,9.8,2.1,9.8,2.9,0,6.5-2.9,16.9-4.6,23.9a31.3,31.3,0,0,0,.3,8.3c.6,2.1,1.4,3.3,1.4,3.7s-15,5.1-24.6-.2C199.1,212.5,199.5,209.1,199.5,205.8Z" style="fill:#768fdb"/><path d="M226.3,210.4l-1.3.5s-1.3-2.1-2.7-2.1l.7,2s-.8,2.4-4.9,2.1-1.1,2.5-2,3.1,2.6,3.4,6,2.4,7.2-5.5,7.2-5.5Z" style="fill:#f37a50"/><path d="M226.3,176.3s10.7,6.3,15.9,21.3c-4.7,5.2-8.6,1.3-8.6,1.3l-10.4-10.3a9.6,9.6,0,0,1-1.6-8.3A5.3,5.3,0,0,1,226.3,176.3Z" style="fill:#f37a50"/><path d="M226.3,210.4l7.5-11s1.8-4.2,8.4-1.8c.3,3.6-2.3,8.7-14.1,16.5A26.2,26.2,0,0,0,226.3,210.4Z" style="fill:#f37a50"/><path d="M210.6,178.7c-.4,1.7.6,3.7,3.4,2.8s5-7.5,5-7.5l-2.1-1.2A10.5,10.5,0,0,1,210.6,178.7Z" style="fill:#fff"/><path d="M210.6,178.7c-.4.9-2.8,3.1-3.9,1.8s.2-4.8.2-4.8l2.6-1.3S208.4,177.5,210.6,178.7Z" style="fill:#fff"/><path d="M226.3,176.3s10.7,6.3,15.9,21.3c-4.7,5.2-9,.9-9,.9l-10-9.9a9.6,9.6,0,0,1-1.6-8.3A5.3,5.3,0,0,1,226.3,176.3Z" style="fill:#4364cc"/><path d="M486.5,175.4c-4.5,1.5-19.2,27.9-19.2,27.9l11.3.7,12.1-12.3Z" style="fill:#201d40"/><path d="M501.6,305.9c-4.2,5.6-14.5,2.2-14.1,9.7h22.1a53.6,53.6,0,0,0-.7-7.5Z"/><path d="M525,306c-4.2,5.6-14.5,2.2-14.1,9.7H533a53.6,53.6,0,0,0-.7-7.5Z"/><path d="M492.6,220.5s-2.5,35.9-1.5,43.9,6.4,18.2,6,44.5c5.1,1.2,12.5,0,12.5,0s1.1-29.7-4.3-43c2.2-12.9,9.2-42.4,9.2-42.4Z" style="fill:#201d40"/><path d="M508.1,221.7s.2,39.7,2.7,47.3,7.4,13,11.9,38.9c5.2.3,12.8.4,12.8.4s-2.7-33.3-10.8-40.8c-.3-13.1,3.1-46.1,3.1-46.1Z" style="fill:#2c2858"/><polygon points="495.6 170 502.3 167.7 509.4 168.1 503.7 177.5 495.6 170" style="fill:#95a6db"/><path d="M498,174.4a9.4,9.4,0,0,0,10.5-1.5l-1.4-10.7-9.9,1.5Z" style="fill:#f37a50"/><path d="M512,171.4h0l-2.2-.3-.4-3-4.6,5.9-1.5.6-1.7-.2-6-4.4.4,3-1.7.8h0l-6.3,2.5,7.5,36.3.2,12.1c9.3.9,19.2.2,28.4-3.3l-3.1-12.3-1.3-36.9Z" style="fill:#95a6db"/><polygon points="502 178.5 503.1 207.2 506 209.9 508.5 207.1 504.2 178.4 502 178.5" style="fill:#e62552"/><polygon points="499.9 175.3 502.5 174.4 505.4 174.7 504.2 178.4 502 178.6 499.9 175.3" style="fill:#e62552"/><path d="M495.1,171.3l3.8,32,3.2,22.5s-6.2,3-11.4-.1l-4.4-50.4Z" style="fill:#2c2858"/><polygon points="495.2 171 499.3 205.6 491.2 179.3 495.2 171" style="fill:#494c7f"/><path d="M509.7,168.4l4.7,57s11.9.7,16.3-3l-4.6-17.7-6.9-36.5Z" style="fill:#2c2858"/><polygon points="509.5 168.3 512.5 203.1 515.5 175.1 509.5 168.3" style="fill:#494c7f"/><ellipse cx="499.1" cy="153.2" rx="13.5" ry="10.6" transform="translate(295.8 634) rotate(-84.1)" style="fill:#f37a50"/><circle cx="491.2" cy="153.8" r="1.1" transform="translate(-21 204.9) rotate(-23.1)"/><circle cx="498.9" cy="153.4" r="1.1" transform="translate(170.4 559) rotate(-68.1)"/><path d="M494.1,153.4l-1.3,4.2a3,3,0,0,0,3.3,1c-1-.1-2.2-.5-2.1-1.9S494.1,153.4,494.1,153.4Z" style="fill:#de623c"/><path d="M501.2,151.8a.5.5,0,0,1-.6-.1s-1-1-2-.4a.5.5,0,1,1-.5-.9,2.7,2.7,0,0,1,3.2.6.5.5,0,0,1,0,.7Z" style="fill:#2c2858"/><path d="M489.1,153a.5.5,0,0,0,.6-.2s.8-1.2,1.8-.9a.5.5,0,1,0,.3-1,2.7,2.7,0,0,0-3,1.3.5.5,0,0,0,.2.7Z" style="fill:#2c2858"/><path d="M508.6,154.7c-.6-2.6-2.8-1.6-3.8-5s-2-6-5.2-4.7-4.1.7-5.7.3c-4.6-1.4-5.3,6.1-5.3,6.1s-3.8-5.6-.9-9.2,4.5-1.7,7.6-4.6,8.5-2.7,10-.8,2.2,3.6,5.6,4.5,5.6,3.2,3.5,7.2,3.2,5.3-1,9.4c-1.6,1.6-4.8,2.6-5.5,2.1S509,156.4,508.6,154.7Z" style="fill:#2c2858"/><path d="M488.6,156.1s1,3.5,1.9,4.6c.1-1.7,2.7-.4,3.9-.7,2.9-.5,6.8-3.1,8.7.9,3.8,0,4.8-8.2,4.8-8.2,2.8,8.1-1.3,14.4-10.3,15.8C491.6,169.4,487.9,162.2,488.6,156.1Z" style="fill:#2c2858"/><ellipse cx="509.4" cy="154.6" rx="3.3" ry="2.7" transform="translate(82 471.9) rotate(-53.5)" style="fill:#f37a50"/><path d="M509.1,156.4h-.2a1.8,1.8,0,0,1-.7-2.1A1.9,1.9,0,0,1,510,153a.4.4,0,0,1,0,.8,1.1,1.1,0,0,0-1,.7,1,1,0,0,0,.5,1.2.4.4,0,0,1,.1.6Z" style="fill:#de623c"/><path d="M496.4,162.6l-.7.2a4.8,4.8,0,0,1-3.3-.9.4.4,0,0,1,.5-.7h0a4,4,0,0,0,2.7.7,3.9,3.9,0,0,0,2.6-1.7.4.4,0,0,1,.7.5A5.1,5.1,0,0,1,496.4,162.6Z" style="fill:#de623c"/><polygon points="502.5 174.4 508 178.3 510.9 170 509.4 168.1 502.5 174.4" style="fill:#fff"/><polygon points="502.5 174.4 499.1 178.9 494.6 172.3 495.6 170 502.5 174.4" style="fill:#fff"/><path d="M429.3,273.3h4.9a0,0,0,0,1,0,0V314a2.5,2.5,0,0,1-2.5,2.5h0a2.5,2.5,0,0,1-2.5-2.5V273.3A0,0,0,0,1,429.3,273.3Z" style="fill:#768fdb"/><path d="M446.6,273.3h4.9a0,0,0,0,1,0,0V314a2.5,2.5,0,0,1-2.5,2.5h0a2.5,2.5,0,0,1-2.5-2.5V273.3a0,0,0,0,1,0,0Z" style="fill:#768fdb"/><path d="M474.2,314.1a2.4,2.4,0,0,1-2.5,2.3h0a2.4,2.4,0,0,1-2.5-2.3V273.3h4.9Z" style="fill:#768fdb"/><path d="M486.6,273.3h4.9a0,0,0,0,1,0,0V314a2.5,2.5,0,0,1-2.5,2.5h0a2.5,2.5,0,0,1-2.5-2.5V273.3A0,0,0,0,1,486.6,273.3Z" style="fill:#768fdb"/><path d="M461.8,208.6v51.9a1.1,1.1,0,0,1-1.1,1.1H428.5a5.9,5.9,0,0,0-5.9,5.9h0a5.9,5.9,0,0,0,5.9,5.9h39.1a5.9,5.9,0,0,0,5.9-5.9V208.6a5.9,5.9,0,0,0-5.9-5.9h0A5.9,5.9,0,0,0,461.8,208.6Z" style="fill:#95a6db"/><rect x="467.6" y="202.7" width="25.5" height="59.83" style="fill:#95a6db"/><path d="M487.2,208.6v51.9a1.1,1.1,0,0,1-1.1,1.1H454a5.9,5.9,0,0,0-5.9,5.9h0a5.9,5.9,0,0,0,5.9,5.9h39.1a5.9,5.9,0,0,0,5.9-5.9V208.6a5.9,5.9,0,0,0-5.9-5.9h0A5.9,5.9,0,0,0,487.2,208.6Z" style="fill:#768fdb"/><path d="M447.1,200.5c-6.5,2-9.7,15.6-12.5,29.9-3.7,4.9-7.7,7.6-13.6,13.4a20.1,20.1,0,0,0,8.2-.2s10.8.1,15.5-10.1c1.1-2.3,1.4-7,2-9.1C446.9,217.9,447.1,200.5,447.1,200.5Z" style="fill:#c4204a"/><path d="M409.1,309.4l-5.8,1.5-2.4-5.2c.2-.2.6-3.6.9-6.3l9.4,1.3A71.4,71.4,0,0,1,409.1,309.4Z" style="fill:#f37a50"/><path d="M398.8,312.5s-2-3.4-4.6-3.6c0,0-4.8.3-6.5,2.3s-.3,2-.1,2.9.6,1.1,2,1.6,5,1.1,10.2-.3,7.3-1,9.6-1.7,1.6-3.7,1-6.6C410.4,307,408.6,310.5,398.8,312.5Z" style="fill:#201d40"/><path d="M400.7,305.2a24.5,24.5,0,0,1-6.5,2.5c-2.1.5-7.5,1.5-6.6,5.2.1.5.6,1.1,2,1.6s5,1.1,10.2-.3,7.3-1,9.6-1.7,1.3-4.1.6-7h0c-.1.7-.4,2.6-4.8,4.3C404,310.4,405.1,304.6,400.7,305.2Z" style="fill:#2c2858"/><path d="M401.5,309.6a.5.5,0,0,1-.4-.4,2.6,2.6,0,0,0-2.4-1.9.5.5,0,0,1,.1-1,3.6,3.6,0,0,1,3.3,2.7.5.5,0,0,1-.4.6Z" style="fill:#494c7f"/><path d="M399.2,310.5a.5.5,0,0,1-.4-.4,2.6,2.6,0,0,0-2.4-1.9.5.5,0,0,1,.1-1,3.6,3.6,0,0,1,3.3,2.7.5.5,0,0,1-.4.6Z" style="fill:#494c7f"/><path d="M431.9,311.6l-5.7,1.9-2.7-5a22.8,22.8,0,0,0,1.1-6.5l8.8.8A71.3,71.3,0,0,1,431.9,311.6Z" style="fill:#f37a50"/><path d="M441.4,246.4c-13.1,2.4-31.6,10.8-33.4,12.8-3.8,4-5.6,17.6-7.4,42l11.4.8c4.2-19,8.2-27.3,8.8-35,0,0,10,.7,25.1-5.1,7.4-2.9,15.2-6.2,12.9-12.9S453.9,244.2,441.4,246.4Z" style="fill:#201d40"/><path d="M456,247.6c-10.8,1.1-25.3,13.5-27.1,15.5-3.8,4-4.3,17.5-6,41.9l11.4,1c1.8-12.6,7.2-27.1,7.2-36.3l25.9-5.7c8.6-1.9,11.2-3.3,12.8-8.9.6-1.9,1.3-6.3.5-7.3C476.9,243.3,466.3,246.5,456,247.6Z" style="fill:#2c2858"/><path d="M421.9,315.4s-2.3-3.2-4.8-3.3c0,0-4.8.6-6.3,2.8s-.2,2,.1,2.9.7,1.1,2.1,1.4,5,.7,10.1-1,7.2-1.5,9.5-2.4,1.4-3.8.5-6.6C433,309.2,431.5,312.8,421.9,315.4Z" style="fill:#201d40"/><path d="M423.3,308a24.4,24.4,0,0,1-6.3,3c-2,.6-7.4,2.1-6.3,5.6.2.5.7,1.1,2.1,1.4s5,.7,10.1-1,7.2-1.5,9.5-2.4,1-4.2.1-7h0c0,.7-.2,2.7-4.4,4.7C426.9,312.9,427.6,307.1,423.3,308Z" style="fill:#2c2858"/><path d="M425.4,312.5a.5.5,0,0,1-.4-.4,2.6,2.6,0,0,0-2.4-1.9.5.5,0,0,1,.1-1,3.6,3.6,0,0,1,3.3,2.7.5.5,0,0,1-.4.6Z" style="fill:#494c7f"/><path d="M423.1,313.4a.5.5,0,0,1-.4-.4,2.6,2.6,0,0,0-2.4-1.9.5.5,0,0,1,.1-1,3.6,3.6,0,0,1,3.3,2.7.5.5,0,0,1-.4.6Z" style="fill:#494c7f"/><polygon points="463.2 189.6 463.2 189.6 458.9 189.6 457.9 199.8 462.9 202.5 468.3 199.8 467.5 189.6 463.2 189.6" style="fill:#f37a50"/><path d="M463.6,188.2c3.8,1.1,6.6-3.6,6.6-3.6a2.4,2.4,0,0,0,2.4-2.4,3.1,3.1,0,0,0,2.7-3.4c-.1-1.9-1.9-2.1-1.8-4.2s2-5.7-3.4-6.9a4.4,4.4,0,0,0-2.8-4.5c-3.9-1.6-5.3.7-7.1.9s-6-2.3-7.3,2.2c0,0-2.8-.4-4.4,1.5a4.8,4.8,0,0,0-.5,5.3,4.6,4.6,0,0,0-3.2,2.5,4,4,0,0,0,1,4.4,4.2,4.2,0,0,0,1.7.9c.9.3.6,2.8,1.3,3.4a18.9,18.9,0,0,0,3.9,2.4Z" style="fill:#2c2858"/><path d="M470.7,182.1c-.2,7.2-5.9,13.3-11.5,13.1s-9.1-6.7-8.9-13.8,5-12.8,10.6-12.6S471,175,470.7,182.1Z" style="fill:#f37a50"/><circle cx="452.7" cy="183.8" r="1" transform="translate(158 573.4) rotate(-75)"/><circle cx="460.7" cy="183.4" r="1.1" transform="translate(164.2 580.9) rotate(-75)"/><path d="M456.7,184l-2,3.2a2.6,2.6,0,0,0,2.5,1.5c-.8-.3-1.7-.9-1.3-2Z" style="fill:#de623c"/><path d="M462.7,182.4h.1a.5.5,0,0,0,.1-.7,2.6,2.6,0,0,0-2.9-1.2.5.5,0,0,0,.3.9c1-.4,1.8.8,1.8.8A.5.5,0,0,0,462.7,182.4Z" style="fill:#2c2858"/><path d="M453.3,181.9h.2a.4.4,0,0,0-.1-.6,2,2,0,0,0-1.5-.4,2.1,2.1,0,0,0-1.4,1.1.4.4,0,1,0,.7.4,1.3,1.3,0,0,1,.9-.7,1.2,1.2,0,0,1,.8.2Z" style="fill:#2c2858"/><path d="M448.6,174.3l12-7.9,12.5,8.9-3.1,9.5c.3-4.6-2.6-3.5-3.9-5s-1.6-3.7-5.2-2.4c0,0-2.5-2.3-4.3.1s-2.8,1.3-4.3,1.2-1.6,1.6-2.7,1.4Z" style="fill:#2c2858"/><ellipse cx="471" cy="183.2" rx="3.1" ry="2.5" transform="translate(24.3 419.6) rotate(-49.1)" style="fill:#f37a50"/><path d="M470.6,184.9h-.1a1.7,1.7,0,0,1-.5-2,1.8,1.8,0,0,1,1.8-1,.4.4,0,1,1-.1.7,1.1,1.1,0,0,0-1,.6.9.9,0,0,0,.3,1.1.4.4,0,0,1,0,.5Z" style="fill:#de623c"/><path d="M455,191.4a.3.3,0,0,1,.2-.5h3.1l3-.5a.3.3,0,0,1,.4.5,4,4,0,0,1-6.7.8Z" style="fill:#fff"/><path d="M472.3,202.4a28,28,0,0,0-9.8-1.5c-11.2,0-12.9,2.8-12.9,2.8l8.3,22.9,4.6,2.3,5-1.5S474.1,203,472.3,202.4Z" style="fill:#ffd0b7"/><path d="M480.7,247.8s-9.1.9-17.5,1a118.7,118.7,0,0,1-17.5-1.7s1.1-15.6,1-21.6.4-16,.4-25.1l9.4-1.4,1.4-.2s1.9,4.1,10.4,0h1.6a71.7,71.7,0,0,1,9.2,1.5c0,9.1.4,17.9.2,24.8S480.7,247.8,480.7,247.8Z" style="fill:#e62552"/><path d="M458.4,220.1l-2.1-1.2a3.9,3.9,0,0,0-3.9-3l.9,3s-1.6,1.3-5.5-.9-2.2,1.9-3.4,2.1,1.3,3.9,5.1,4.5,5.4-.3,5.4-.3l2.8,1Z" style="fill:#f37a50"/><path d="M477.4,223.2c-6.9-.5-18.6-3.9-18.6-3.9a11.1,11.1,0,0,0-1.4,6.7c10.7,9.3,26.7,12.4,31.6,10.1s1.3-29.4-10-35.7h-.4C474.8,207.1,477.4,223.2,477.4,223.2Z" style="fill:#c4204a"/><path d="M469.9,199h0a6,6,0,0,1-2.6,2.3,12.6,12.6,0,0,1-5.9,1.2,6.8,6.8,0,0,1-3.5-1.3,4,4,0,0,1-1.4-2.1l1.5-.2s1.8,4.1,10.3,0Z" style="fill:#c4204a"/><path d="M519.6,248.8H374.9a3.2,3.2,0,0,1-3.2-3.2h0a3.2,3.2,0,0,1,3.2-3.2H519.6a3.2,3.2,0,0,1,3.2,3.2h0A3.2,3.2,0,0,1,519.6,248.8Z" style="fill:#4661b3"/><rect x="375.8" y="247" width="5.5" height="69.48" rx="2.7" ry="2.7" style="fill:#4661b3"/><rect x="513.5" y="247" width="5.5" height="69.48" rx="2.7" ry="2.7" style="fill:#4661b3"/><path d="M442.1,242.6H405.8l-7.2-22.8a1.6,1.6,0,0,1,1.6-2.1H433a1.6,1.6,0,0,1,1.6,1.1Z" style="fill:#0e6a41"/><path d="M439.3,242.6H403l-7.2-22.8a1.6,1.6,0,0,1,1.6-2.1h32.9a1.6,1.6,0,0,1,1.6,1.1Z" style="fill:#3f964f"/><ellipse cx="415.6" cy="231.2" rx="2.4" ry="2.6" transform="translate(-47.4 122.4) rotate(-15.9)" style="fill:#55ab65"/><path d="M462.7,240.2H439.3v2.3H465A2.3,2.3,0,0,0,462.7,240.2Z" style="fill:#0e6a41"/><path d="M390.4,226.9h0a6.3,6.3,0,0,1,6.3,6.3v9.3a0,0,0,0,1,0,0H384.1a0,0,0,0,1,0,0v-9.3a6.3,6.3,0,0,1,6.3-6.3Z" style="fill:#95a6db"/><path d="M385.1,241.1h-2.9a2.7,2.7,0,0,1-2.7-2.7v-5.2a2.7,2.7,0,0,1,2.7-2.7h2.4a1.2,1.2,0,1,1,0,2.4h-2.4a.3.3,0,0,0-.3.3v5.2a.3.3,0,0,0,.3.3h2.9a1.2,1.2,0,1,1,0,2.4Z" style="fill:#95a6db"/><path d="M487.6,219c1.6-.8,3.4-1.2,4-3.5l9-2.2-5.6-5.1c-1.8.6-5.2,2.9-7.2,2.9h-1.6c-1.3,0-2.7-.2-4.1.9-5.4,4-7.5,3.3-7.7,3.8s1.3,2.1,4,.7a10.8,10.8,0,0,1,4.1-1.4s0,2.3.9,3S485.7,220,487.6,219Z" style="fill:#f37a50"/><path d="M492.9,208s14.4-6.9,25.3-9.2c-1.5-5.5,1-30.7,1-30.7s7.4,1.8,11,15.5-4.7,27.6-4.7,27.6-22.6,6.3-30.7,4C493.4,214.8,492.9,208,492.9,208Z" style="fill:#201d40"/><path d="M170.2,294.3l6.6,21c.2.6.5.9.8.9h0c.6,0,1-1.1.9-2.4L177,294.3Z" style="fill:#4364cc"/><path d="M109.4,294.3l-6.6,21c-.2.6-.5.9-.8.9h0c-.6,0-1-1.1-.9-2.4l1.4-19.5Z" style="fill:#4364cc"/><path d="M78.1,294.3l-6.6,21c-.2.6-.5.9-.8.9h0c-.6,0-1-1.1-.9-2.4l1.4-19.5Z" style="fill:#4364cc"/><path d="M115.9,244.5h44.3a22.1,22.1,0,0,1,22.1,22.1v0a28.5,28.5,0,0,1-28.5,28.5h-38a0,0,0,0,1,0,0V244.5a0,0,0,0,1,0,0Z" style="fill:#768fdb"/><path d="M101.1,244.5h44.3a22.1,22.1,0,0,1,22.1,22.1v0a28.5,28.5,0,0,1-28.5,28.5h-38a0,0,0,0,1,0,0V244.5a0,0,0,0,1,0,0Z" style="fill:#4364cc"/><path d="M88.3,216h17.5a31.5,31.5,0,0,1,31.5,31.5v9.8a0,0,0,0,1,0,0h-49a0,0,0,0,1,0,0V216A0,0,0,0,1,88.3,216Z" style="fill:#768fdb"/><path d="M83,256.4h70.3a14.5,14.5,0,0,1,14.5,14.5v0a0,0,0,0,1,0,0H83a0,0,0,0,1,0,0V256.4A0,0,0,0,1,83,256.4Z" style="fill:#95adf5"/><rect x="83" y="269.2" width="84.8" height="25.91" style="fill:#768fdb"/><path d="M88.3,216h0a0,0,0,0,1,0,0v41.3a0,0,0,0,1,0,0H71.2a0,0,0,0,1,0,0V233.1A17.1,17.1,0,0,1,88.3,216Z" style="fill:#4364cc"/><circle cx="114.8" cy="170.8" r="8.2" style="fill:#201d40"/><path d="M135.7,193.9c3.9-3.7,7.9-19.4-2.8-24.2s-23,1.8-23.5,12.6a18.6,18.6,0,0,0,7.7,16Z" style="fill:#2c2858"/><path d="M182.5,288l3.2,4.5s2.9,3.7,6.3,2,1.9-7.3,1.9-7.3l-4-5.2Z" style="fill:#f37a50"/><path d="M193.9,286.6a25.9,25.9,0,0,0,7.3-1.3c2.1-.7,7.6-2.8,8.9,1,.2.6.1,1.4-.9,2.6s-3.9,3.7-9.4,5.4-7.1,3.2-9.6,3.8-3.5-3-4.5-5.9h0c.5.6,1.8,2.2,6.7,1.3C193.8,293.1,189.7,288.5,193.9,286.6Z" style="fill:#2c2858"/><path d="M155.1,303.6v3.1s.2,4.7,4,5.3,5.8-4.8,5.8-4.8v-4.8Z" style="fill:#f37a50"/><path d="M140.5,227.1c-1.9,0-5.7,6.8-5.3,7.4,4.5,5,22.1,5.5,22.1,5.5l2.1-2.2A139.4,139.4,0,0,1,140.5,227.1Z" style="fill:#c4204a"/><path d="M123.9,211.5c1.7,5.1,9.5,22.3,11.3,23l5.3-7.4s-8.1-18-9.5-20.7C128.7,201.7,121.1,203.1,123.9,211.5Z" style="fill:#c4204a"/><path d="M124.3,194.6s.7,6.6,1.1,9.1l-8.7,2.2a144.5,144.5,0,0,1-1.2-16.8Z" style="fill:#f37a50"/><ellipse cx="126.6" cy="185.6" rx="14.5" ry="11.4" transform="translate(-65.5 302) rotate(-86.9)" style="fill:#f37a50"/><circle cx="135.7" cy="187.1" r="1.1" transform="translate(-30.3 26.2) rotate(-9.9)"/><circle cx="126.9" cy="186.7" r="1.2" transform="translate(-30.3 24.7) rotate(-9.9)"/><path d="M124.8,185.6h.2a3.1,3.1,0,0,1,2.6-.8.4.4,0,0,0,.1-.8,3.9,3.9,0,0,0-3.3,1.1.4.4,0,0,0,0,.6Z" style="fill:#2c2858"/><path d="M137.3,186.5h.1a.4.4,0,0,0,.2-.6,2.9,2.9,0,0,0-2.5-1.5.4.4,0,0,0,0,.8,2.1,2.1,0,0,1,1.8,1.1A.4.4,0,0,0,137.3,186.5Z" style="fill:#2c2858"/><path d="M133.3,189.4a10.9,10.9,0,0,0,1.2,2,.4.4,0,0,1,0,.6,5.9,5.9,0,0,1-3.1,1,.1.1,0,0,1-.1-.2,5.6,5.6,0,0,0,1.7-1.1.5.5,0,0,0,.1-.4c-.1-.4-.2-1.1-.3-1.7A.2.2,0,0,1,133.3,189.4Z" style="fill:#de623c"/><path d="M128.1,196.5a5,5,0,0,1-3.5-3.1.5.5,0,0,1,.9-.3c0,.1.9,2.8,5.4,2.8a.5.5,0,0,1,0,.9A9.1,9.1,0,0,1,128.1,196.5Z" style="fill:#de623c"/><path d="M114.3,184.9c7.3,1.1,20.1-3.8,22-7.2,0-4.8-6.6-9.1-11.3-8.3S113,178.5,114.3,184.9Z" style="fill:#2c2858"/><ellipse cx="115.8" cy="186" rx="2.8" ry="3.4" transform="translate(-86.6 102.1) rotate(-35.6)" style="fill:#f37a50"/><path d="M116.1,187.9h.2a1.9,1.9,0,0,0,.8-2.1,2,2,0,0,0-1.9-1.3.4.4,0,0,0,0,.8,1.2,1.2,0,0,1,1.1.8,1.1,1.1,0,0,1-.5,1.2.4.4,0,0,0-.1.6Z" style="fill:#de623c"/><path d="M127.6,259.4l37-1.6s1.8-9.2.5-12.9-35.3-2.9-35.3-2.9Z" style="fill:#3f964f"/><path d="M116.7,235.7c-1,2.3-4.9,9.2-4.5,14.8s4.5,10.8,11.3,10.7c0,0,13-7.4,10.2-22.5A56,56,0,0,0,116.7,235.7Z" style="fill:#0e6a41"/><path d="M122.5,262.5l32.6,3.1s11.2-4.7,11.1-8.7-32.9-15-32.9-15C114.1,236.3,107.7,260.2,122.5,262.5Z" style="fill:#0e6a41"/><path d="M166.2,256.8l-.7,45.9s-8.1,3.4-11,0c-1.3-15.6-7.7-29.4-.6-38.9C163.5,251.2,166.2,256.8,166.2,256.8Z" style="fill:#0e6a41"/><path d="M164.9,244.8,192,282s-6,8.1-10.3,7.1c-7.3-9.2-22-20-22.1-31.6C159.5,242,164.9,244.8,164.9,244.8Z" style="fill:#3f964f"/><path d="M116.3,203h9.1c4.2,4.9,8.4,9,9.2,12.4s.8,28,.8,28c-7.7,2.8-16.2.3-21.8-1.8,1.4-11.6-7.9-24.7-2.5-33.6C112.5,205.8,114.3,204.7,116.3,203Z" style="fill:#e62552"/><path d="M165.2,306.6a25.9,25.9,0,0,0,6.7,3.1c2.1.6,7.9,2.2,6.7,6-.2.6-.7,1.2-2.3,1.5s-5.3.8-10.8-1-7.6-1.5-10.1-2.5-1.1-4.4-.2-7.4h0c0,.8.2,2.8,4.7,4.9C161.3,311.8,160.6,305.7,165.2,306.6Z" style="fill:#2c2858"/><path d="M134.4,245.2h29.5l5.8-18.5a1.3,1.3,0,0,0-1.3-1.7H141.7a1.3,1.3,0,0,0-1.3.9Z" style="fill:#2c2858"/><path d="M136.6,245.2h28.3a1.7,1.7,0,0,0,1.6-1.2l5.4-17.3a1.3,1.3,0,0,0-1.3-1.7H144a1.3,1.3,0,0,0-1.3.9Z" style="fill:#494c7f"/><ellipse cx="155.9" cy="236" rx="2.2" ry="2" transform="matrix(0.27, -0.96, 0.96, 0.27, -113.72, 321.46)" style="fill:#555994"/><path d="M118.6,242.5h18a0,0,0,0,1,0,0v0a2.7,2.7,0,0,1-2.7,2.7H118.6a0,0,0,0,1,0,0v-2.7a0,0,0,0,1,0,0Z" transform="translate(255.2 487.7) rotate(-180)" style="fill:#2c2858"/><path d="M133.2,243.8c-2.1,0-4.9.4-4.8-.7s1.2-1.5,1.3-2.8-3.8-.9-6.3,3l-.7-.4-2.1,3.6,1.3.5c2.2,2.7,9,4.1,13,2S135.3,243.9,133.2,243.8Z" style="fill:#f37a50"/><path d="M107.9,209.3c-2.6,5.7-12.2,18.7-10.1,25.9,1.5,5,23.2,12.4,23.2,12.4l2.1-5.3-15.1-11.2s8.8-17.2,9.7-20.4C119.3,205.1,112,200.3,107.9,209.3Z" style="fill:#c4204a"/><path d="M115.8,199.7l.2,3.6h9.5v-2.9S119.1,200.2,115.8,199.7Z" style="fill:#e62552"/><path d="M85.9,244.5h20.5a22.1,22.1,0,0,1,22.1,22.1v0a28.5,28.5,0,0,1-28.5,28.5H85.9a0,0,0,0,1,0,0V244.5A0,0,0,0,1,85.9,244.5Z" style="fill:#768fdb"/><path d="M71.2,244.5H91.7a22.1,22.1,0,0,1,22.1,22.1v0a28.5,28.5,0,0,1-28.5,28.5H71.2a0,0,0,0,1,0,0V244.5a0,0,0,0,1,0,0Z" style="fill:#4364cc"/><path d="M34.3,303.5c-2.8,11.7-12.8,5.3-10.7,12.7a1.3,1.3,0,0,0,1.2.9l5.9.2a2.6,2.6,0,0,0,1.6-.5c3.1-2.1,5.2-5.1,11.9-5.5-.1-2.8.1-6.9-.9-8.4Z" style="fill:#0e6a41"/><path d="M49.7,221.2s-17,26-19.4,34.1,2.6,21.8,1.7,49.4c5.3,1.4,12.4.2,12.4.2s4.3-34.6-.8-42.8c7.5-11.5,26.4-36.6,26.4-36.6Z" style="fill:#201d40"/><path d="M59.2,307.3c-4.3,5.9-15.2,2.4-14.7,10.3,16.4-.3,23.2-.2,23.2-.2a56.2,56.2,0,0,0-.8-7.8Z" style="fill:#0e6a41"/><path d="M54.1,216s-5.4,42.4-4.2,50.7,5.1,14.8,5.3,42.5c5.4,1.2,13.6,2.2,13.6,2.2s3.5-33.3-3.7-42.5c2-13.6,11.6-47.8,11.6-47.8Z" style="fill:#2c2858"/><path d="M26.3,197.3l-6.6-7.4-.6-.3H13.6c-.2,0-.6.9-.5,1l4.7,4.2h.1l8,3C26,197.8,26.4,197.5,26.3,197.3Z" style="fill:#c4204a"/><path d="M25.8,197.8l-6.3-7-.6-.3H13.3a.2.2,0,0,0-.1.3l4.4,4.9h.1l7.9,2.4A.2.2,0,0,0,25.8,197.8Z" style="fill:#e62552"/><path d="M38.2,204.2,33.7,202s-4.5-4.6-5.2-5.6-2.9-1.8-3.3-1.8H23.9l2.1,2.4a3.4,3.4,0,0,1-2.3-.6c-1.3-.8-3.5-3-4.6-2.6l-.4.3s-.7-.7-1.4-.5.7,3.6,4.4,7.1a11,11,0,0,0,1.5,2.6l7.5,2.6Z" style="fill:#f37a50"/><ellipse cx="18.8" cy="191.5" rx="0.5" ry="0.7" transform="translate(-129.9 69.4) rotate(-45)" style="fill:#c4204a"/><path d="M59.5,170.7c-1.4,1.8,9.3,3.7,10.7,0s-1-13.7-1-13.7L59.5,159S61.2,168.4,59.5,170.7Z" style="fill:#f37a50"/><ellipse cx="60.2" cy="150" rx="11.1" ry="14.1" transform="translate(-15.3 7.1) rotate(-6)" style="fill:#f37a50"/><circle cx="51.7" cy="153" r="1.2" transform="translate(-109.8 150) rotate(-70.3)"/><circle cx="59.2" cy="151.3" r="1.3" transform="translate(-103.2 155.9) rotate(-70.3)"/><path d="M55,153.2c-.2,1.8-.6,4.1-.6,4.1a2.8,2.8,0,0,0,3.2.4c-1,0-2.1-.2-2.2-1.4S55,153.2,55,153.2Z" style="fill:#de623c"/><path d="M52.4,150.8H52a1.3,1.3,0,0,0-.9-.1,1.4,1.4,0,0,0-.8.9.4.4,0,0,1-.8-.3,2.3,2.3,0,0,1,1.3-1.5,2.2,2.2,0,0,1,1.7.1.4.4,0,0,1,.2.6Z" style="fill:#201d40"/><path d="M58.2,149.5h.4a1.3,1.3,0,0,1,.9-.4,1.4,1.4,0,0,1,1,.6.4.4,0,1,0,.7-.6,2.3,2.3,0,0,0-1.7-.9,2.2,2.2,0,0,0-1.5.7.4.4,0,0,0,0,.6Z" style="fill:#201d40"/><path d="M69,153.7c-4-3.4-2.9-8.5-2.9-8.5-1.9.1-2.5,1-2.5,1a4.2,4.2,0,0,1-1.2-3.5c-4.2-.5-5.5,2.5-8.7,4.3s-10.7,2.1-12.8-3.5a1,1,0,0,1,1.3-1.3,4.5,4.5,0,0,0,2.8.1,4.8,4.8,0,0,1-1.8-2.4,1,1,0,0,1,1.4-1.2c1.2.6,3.2.8,6.3-.6s6.1-5.8,9.3-5.9,5.2,1.5,6.9,4.3A8.2,8.2,0,0,1,76,142c2.4,6.5-6.6,16.6-6.6,16.6S70,154.8,69,153.7Z" style="fill:#201d40"/><path d="M55.5,160.6a.3.3,0,0,1,.1-.6l3.1-.9,2.9-1.3a.3.3,0,0,1,.5.4,4.2,4.2,0,0,1-6.6,2.5Z" style="fill:#fff"/><ellipse cx="68" cy="151.1" rx="3.3" ry="2.7" transform="translate(-86.5 91.3) rotate(-44.6)" style="fill:#f37a50"/><path d="M67.4,152.9h-.2a1.8,1.8,0,0,1-.4-2.2,1.9,1.9,0,0,1,2-1,.4.4,0,0,1-.2.8,1.1,1.1,0,0,0-1.2.6,1,1,0,0,0,.3,1.2.4.4,0,0,1,0,.6Z" style="fill:#de623c"/><path d="M47.7,224.3c7.6,1.5,21.2,4.2,28.4,1.4,2.7-3.9,3.4-26,3.4-26,.8-22.7-1.9-26.1-8.1-33.7-2.6,1.2-9,2.2-11.9,2.2,0,0-6.4,8.9-7.7,15.4s-1.4,18.3-1.5,25S48.6,219.7,47.7,224.3Z" style="fill:#3f964f"/><path d="M72.3,172.9c4.4,8.6,3.4,18.2-9.4,36.9-9-.8-10.8-8.3-10.8-8.3s2.5-9.3,5.7-21.1S70.3,169.1,72.3,172.9Z" style="fill:#0e6a41"/><path d="M32.9,199.7l19.3,1.5s8.3-1.5,10.6,8.6c-4.1,3.2-14.8,4.4-32.4-2.1C32.3,205.2,32.9,199.7,32.9,199.7Z" style="fill:#0e6a41"/><polygon points="59.5 167.6 59.4 172.8 72.4 167.3 70.8 163.1 59.5 167.6" style="fill:#fff"/><polygon points="273.4 160.9 273.4 160.9 278.1 160.9 279.2 172.1 273.6 175 267.7 172.2 268.7 160.9 273.4 160.9" style="fill:#f37a50"/><ellipse cx="274.4" cy="151.8" rx="11.2" ry="14.2" transform="translate(-19.2 41.6) rotate(-8.4)" style="fill:#f37a50"/><circle cx="283.5" cy="151.5" r="1.1" transform="translate(-35.7 113.8) rotate(-21.4)"/><circle cx="275" cy="152.8" r="1.2" transform="translate(-36.8 110.8) rotate(-21.4)"/><path d="M280.5,153.2l2.6,3.2a2.8,2.8,0,0,1-2.6,2c.9-.5,1.7-1.2,1.2-2.4Z" style="fill:#de623c"/><path d="M272.1,152h-.1a.5.5,0,0,1-.2-.7,2.9,2.9,0,0,1,3.1-1.6.5.5,0,0,1-.2,1c-1.2-.3-1.9,1-1.9,1.1A.5.5,0,0,1,272.1,152Z" style="fill:#201d40"/><path d="M282,149.4h-.2a.4.4,0,0,1,0-.6,2.2,2.2,0,0,1,1.6-.6,2.3,2.3,0,0,1,1.7,1,.4.4,0,1,1-.7.5,1.5,1.5,0,0,0-1-.7,1.3,1.3,0,0,0-.9.4Z" style="fill:#201d40"/><path d="M260.8,147.2c-.8-7.4,6-9.9,6-9.9s-1.5-.5-1.2-2.8a6,6,0,0,0,3.7.8c8.5-1,13.8.4,13,3.7-.3,1.2,5.2,1.6,2.9,9.5-.2-.6-1-4.3-2.7-5s-.6,2-4.4,1.6-6.3-1.9-9-.4-5.4,11.6-4.9,11.9C262.6,155.5,261.1,150.4,260.8,147.2Z" style="fill:#201d40"/><path d="M285.6,154.4s-.7,4.2-1.6,5.4c-.2-1.8-2-.4-3.3-.5-3.1-.3-8.4-2.7-10,1.8-4,.3-6.3-8.1-6.3-8.1-2.3,8.8,3.7,15,13.4,15.8C284.2,169.2,286.9,160.8,285.6,154.4Z" style="fill:#201d40"/><path d="M277.2,161.4a8.1,8.1,0,0,1-1.7-1.2.4.4,0,0,1,.5-.5,5.2,5.2,0,0,0,3.7,1.6,3.7,3.7,0,0,0,2.4-1.1.4.4,0,0,1,.5.5,4.4,4.4,0,0,1-2.9,1.3A4.8,4.8,0,0,1,277.2,161.4Z" style="fill:#de623c"/><ellipse cx="264" cy="153.9" rx="2.7" ry="3.3" transform="translate(-28.3 243.3) rotate(-47.2)" style="fill:#f37a50"/><path d="M264.8,155.7h.2a1.8,1.8,0,0,0,.3-2.2,1.9,1.9,0,0,0-2.1-.9.4.4,0,1,0,.2.8,1.2,1.2,0,0,1,1.2.5,1,1,0,0,1-.2,1.3.4.4,0,0,0,0,.6Z" style="fill:#de623c"/><path d="M282,307.4c4.2,5.8,14.5,2.2,14.1,10.1-15.7-.1-22.2,0-22.2,0a57.4,57.4,0,0,1,.7-7.7Z"/><path d="M258.6,307.5c4.2,5.8,14.5,2.2,14.1,10.1-15.7-.1-22.2,0-22.2,0a57.4,57.4,0,0,1,.7-7.7Z"/><path d="M289.3,219.1s2.5,37.1,1.5,45.3-4.7,18.8-4.3,46.1c-5.1,1.3-12.5,0-12.5,0s-1.1-30.8,4.3-44.6c-2.2-13.4-9.2-44-9.2-44Z" style="fill:#4364cc"/><path d="M279.6,220.1s-5.1,41.6-7.6,49.5-4.7,13.7-9.2,40.5c-5.2.3-12.8.1-12.8.1s.7-33.3,8.9-41c.3-13.6-1.3-48.9-1.3-48.9Z" style="fill:#768fdb"/><path d="M255.9,172.9s8.9-3.1,11.9-1.7c9.2,4.4,11.4,0,11.4,0,3,.3,11.9,1.7,11.9,1.7,0,9.9.7,19.9.5,27.5s1.1,24.4,1.1,24.4a90,90,0,0,1-19.1,2.6,87.5,87.5,0,0,1-18.8-2.5s.5-18.1.9-24.8S255.9,182.8,255.9,172.9Z" style="fill:#e62552"/><path d="M306.9,187.7c-3.7-8.8-14.6-14.4-15.8-14.8l-2.5,11.3a66,66,0,0,1,9.1,6.5c-.6,3.1-.5,6.2-2.4,10.2,0,0,1.6-2.2,3.5-.9s5.4-1.3,5.4-1.3S309.7,194.4,306.9,187.7Z" style="fill:#c4204a"/><path d="M304.8,209.8h.4a1,1,0,0,0,.8-.7l9.8-31.6v-.2a1,1,0,0,0,0-.1s0-.1,0-.1h0a1,1,0,0,0-.7-.8H290.1l-9.9,33.6h24.6Z" style="fill:#768fdb"/><path d="M290.4,176.3a1,1,0,0,0-1.2.7l-9.7,31.5h0a1,1,0,0,0,.7,1.2h0a1,1,0,0,0,1.2-.7l9.8-31.6A1,1,0,0,0,290.4,176.3Z" style="fill:#4364cc"/><path d="M309,196.4h.3a1.8,1.8,0,0,1,.1-2.5h.4a1.5,1.5,0,0,1,.5-1.7l.6-.2a1.5,1.5,0,0,1,.5-1.7,1.7,1.7,0,0,1,1.9,2.9l-.6.2a1.7,1.7,0,0,1-.2,2.2h-.4a1.5,1.5,0,0,1-.5,1.7l-.6.2a1.3,1.3,0,0,1-.4,1.5,1.5,1.5,0,0,1-1.6-2.4Z" style="fill:#f37a50"/><path d="M278.7,194.4l2.3-1.3a4.3,4.3,0,0,1,4.2-3.3l-1,3.3s1.8,1.4,6-1,2.4,2.1,3.7,2.3-1.5,4.3-5.6,4.9-6-.3-6-.3l-3,1.1Z" style="fill:#f37a50"/><path d="M255.6,198.1c7.5-.5,22.5-4.5,22.5-4.5a12.1,12.1,0,0,1,1.5,7.3C268,211.1,250.4,214.4,245,212s-1.4-32.2,10.9-39.1Z" style="fill:#8a284c"/><ellipse cx="293.7" cy="180.5" rx="2.1" ry="1.8" transform="translate(17.2 386.3) rotate(-68.2)" style="fill:#4364cc"/><ellipse cx="297.5" cy="180.4" rx="1.2" ry="1.1" transform="translate(19.7 389.8) rotate(-68.2)" style="fill:#4364cc"/><path d="M315.1,174.1a4.2,4.2,0,0,0,.9-5.2c1.4-.3,8.8,10.9,12,18.1,5.6-5.6,15.4-13.2,18.1-13.7,0,0,3.6-1,4.9,3.4s-3.3,6.6-3.3,6.6-19.2,13.6-22,12.3C321.1,193.7,317.1,177.6,315.1,174.1Z" style="fill:#f37a50"/><path d="M311,173.8c1.6.1,3.6-.7,4.2.7l3-1.5.2-1.9c-2.7-4.3-9.1-5.5-9.8-5.5s-2.4-.3-2.6-.1-.5,1.7,1.9,2,1,2.8-5.1.5c-1.5-.6-4.4.2-3.4,1.3S303.9,173.3,311,173.8Z" style="fill:#f37a50"/><path d="M357.9,138.5c4.2-4.3,12.7-4.9,14.2,1.3s1.4,10.4,9.2,9c6.2-1.1,12.9,4.1,13.4,12.9.7,11.2-7.4,7.3-5.3,12.8s3.6,11-4.4,11.7-14.7-5.7-14.3-14.9-5.3-5.5-7.2-9.9C360.8,154.9,357.9,138.5,357.9,138.5Z" style="fill:#201d40"/><path d="M338.5,308.6l-3.6-14.3,9-1.2c.3,6.7.8,13.4.8,15.2Z" style="fill:#f37a50"/><path d="M359.9,293h9.4c-.3,2.2-1.5,14.4-1.5,14.4-.8,1.8-7.8,1.4-7.8.4S360,293.3,359.9,293Z" style="fill:#f37a50"/><path d="M344.6,298.6l-9.2,1.4-6.4-38.3c1.3-14.6,14.1-45.5,14.1-45.5l14.4,5.1.4,13.7-17.4,29.4C342.7,269.9,344.3,288.3,344.6,298.6Z" style="fill:#c4204a"/><path d="M351.7,217.1c.1-.9.2-1.2.9-1.6l13.9-3.9,3.3,3.3c3.1,11.3,1.2,27.1-1.3,39.7,3.6,10.8,2.2,33.2.7,43.7h-9.9c-.6-7-.4-20-.4-26.3h0c-1.3-5.1-2.5-10.4-3.6-16.1-1.4-7.2-3.2-14.3-3.7-20.8A103.6,103.6,0,0,1,351.7,217.1Z" style="fill:#e62552"/><ellipse cx="355.2" cy="154.7" rx="10.7" ry="13.6" transform="translate(-1.1 2.5) rotate(-0.4)" style="fill:#f37a50"/><path d="M362.3,162.1l-8.6,4.9s-.8,3.5-1.1,4.6,2.2,3.4,4.8,1.9a17.3,17.3,0,0,0,4.2-3.4Z" style="fill:#f37a50"/><path d="M344.2,153.3c2.1-.2,13.5-3.1,14.8-5.2-.1,4.9,7.3,10.5,8.3,9.1,3.5-9.1.9-16.8-9.2-18.8C344.2,135.5,344.2,153.3,344.2,153.3Z" style="fill:#2c2858"/><circle cx="356.2" cy="156.5" r="1.2" transform="translate(34.2 374.9) rotate(-57.9)"/><circle cx="348" cy="156.4" r="1.1" transform="translate(30.4 367.9) rotate(-57.9)"/><path d="M345.8,154.6h-.1a.5.5,0,0,1,0-.7,3.1,3.1,0,0,1,3.1-1.1.4.4,0,0,1,.3.6.5.5,0,0,1-.6.3,2.2,2.2,0,0,0-2.2.8A.4.4,0,0,1,345.8,154.6Z" style="fill:#2c2858"/><path d="M358.4,154.9h.1a.5.5,0,0,0,0-.7,3.1,3.1,0,0,0-3.1-1.1.4.4,0,0,0-.3.6.5.5,0,0,0,.6.3,2.2,2.2,0,0,1,2.2.8A.4.4,0,0,0,358.4,154.9Z" style="fill:#2c2858"/><path d="M349.8,157.8a10.3,10.3,0,0,1-1,2,.4.4,0,0,0,0,.6,5.6,5.6,0,0,0,2.9.8.1.1,0,0,0,0-.2,5.3,5.3,0,0,1-1.7-1,.5.5,0,0,1-.1-.4c.1-.4.1-1.1.2-1.7A.2.2,0,0,0,349.8,157.8Z" style="fill:#de623c"/><ellipse cx="365" cy="159.4" rx="3.2" ry="2.6" transform="translate(-3.8 309.9) rotate(-45.8)" style="fill:#f37a50"/><path d="M364,160.7h-.1a1.8,1.8,0,0,1,.1-2.2,1.9,1.9,0,0,1,2.1-.5.4.4,0,0,1-.3.7,1.1,1.1,0,0,0-1.2.3,1,1,0,0,0,0,1.2.4.4,0,0,1-.1.5Z" style="fill:#de623c"/><path d="M342.5,217.1a45.8,45.8,0,0,0,28.2,1.5,36.5,36.5,0,0,0-2.8-15.2c.7-5.8.5-14.6.7-18-1.8-9-.9-9.8.7-14.1l-5.6-1.7-10.1,3.6-.8-2.4s-6.3,1.9-7.7,2.7l-2.4,9.6.5,21.3S343.1,215.8,342.5,217.1Z" style="fill:#3f964f"/><path d="M352.5,165.1h.7a4.8,4.8,0,0,0,3.1-1.6.4.4,0,0,0-.7-.5h0a4,4,0,0,1-2.5,1.3,3.9,3.9,0,0,1-2.9-1.1.4.4,0,0,0-.6.7A5.1,5.1,0,0,0,352.5,165.1Z" style="fill:#de623c"/><path d="M340.7,308.3a4,4,0,0,0-2.9-2.7c-3.9,5.2-13.5,2-13.2,9.1h20.6a50,50,0,0,0-.6-7h-.8Z" style="fill:#2c2858"/><path d="M326.6,314.5h16.5a2.1,2.1,0,0,1,2.1,2.1v0a0,0,0,0,1,0,0H324.5a0,0,0,0,1,0,0v0A2.1,2.1,0,0,1,326.6,314.5Z" transform="translate(669.7 631) rotate(-180)" style="fill:#fff"/><path d="M358.3,314.7s1.2-4.4,1.3-4.9.5-2.1.5-2.9a6.3,6.3,0,0,1,3.6-1.4,6.2,6.2,0,0,1,4,1.4,46,46,0,0,0,.6,4.6c.3,1.1,1.1,3.5,1.1,3.5Z" style="fill:#2c2858"/><path d="M358.3,314.4c.3.9,3.6-.1,6.1-.1s4.7.8,5,.5a5.1,5.1,0,0,1,.1,2.8s-2.1.1-4.7,0-5.6.1-6.7-.3S358.3,314.4,358.3,314.4Z" style="fill:#fff"/><path d="M364.3,169.9a47.7,47.7,0,0,0-6.3,25.7c.5,12.6,3.6,27.9,2.2,42a74.1,74.1,0,0,0,14.5-.3c-.8-8.3-5.4-65.9-5.4-65.9Z" style="fill:#201d40"/><path d="M375.7,205.8l-1.4.5s-1-2.3-2.5-2.3l.2,2.3s-.7,2.5-5.1,2.2-1.1,2.6-2.2,3.3,2.8,3.6,6.4,2.5,7.7-5.9,7.7-5.9Z" style="fill:#f37a50"/><path d="M369.2,171.4a46.3,46.3,0,0,1,20.6,21.2c-4.3,6.1-9,2.5-9,2.5l-12.3-9.6s-2.9-4.1-2.3-8.7S369.2,171.4,369.2,171.4Z" style="fill:#f37a50"/><path d="M375.4,205.8l6.2-10.9s1.1-4.9,8.2-2.3c.3,3.8,1.6,7.8-11.1,16.2A36.6,36.6,0,0,1,375.4,205.8Z" style="fill:#f37a50"/><path d="M361.6,168.6l4,1.7c-.4,4.8-11.1,7.6-11.1,7.6l-1.1-4.6Z" style="fill:#0e6a41"/><path d="M349.5,171.6c-2,6.2-4.9,14.9-4.1,24.2s1.8,24.4-2.9,40.3a33.9,33.9,0,0,1-8.2.2s6.8-23.4,6.5-33.7.2-21.9,3-28.5Z" style="fill:#201d40"/><path d="M353.5,173.3l-3.1,3.5s-2.7-2.8-1.7-4.5,4.5-2.9,4.5-2.9Z" style="fill:#0e6a41"/><path d="M260.8,253.7h-4.3a1.2,1.2,0,0,1,.1-2.4h5a1.2,1.2,0,0,1,0,2.4Zm5.9-.2a1.2,1.2,0,0,1-.1-2.4l5-.5a1.2,1.2,0,0,1,.3,2.3l-5.1.6Zm63.6-.3h0a17.8,17.8,0,0,1-5.3-1,1.2,1.2,0,0,1,.8-2.2,15.4,15.4,0,0,0,4.6.9,1.2,1.2,0,0,1,0,2.4Zm-78.8,0h-.1l-5.1-.8a1.2,1.2,0,0,1,.5-2.3l4.9.8a1.2,1.2,0,0,1-.1,2.4Zm83.9-.5a1.2,1.2,0,0,1-.3-2.3,13.5,13.5,0,0,0,4.3-1.8,1.2,1.2,0,0,1,1.3,2,15.8,15.8,0,0,1-5,2.2Zm-58.6-.6a1.2,1.2,0,0,1-.3-2.3l4.8-1.3a1.2,1.2,0,0,1,.7,2.2l-5,1.4Zm-35.2-.9h-.4a38.4,38.4,0,0,1-4.9-1.9,1.2,1.2,0,0,1,1-2.1,36,36,0,0,0,4.6,1.8,1.2,1.2,0,0,1-.4,2.3Zm79.5-1.4a1.2,1.2,0,0,1-.8-.3,10.3,10.3,0,0,1-2.9-4.9,1.2,1.2,0,0,1,2.3-.6,8,8,0,0,0,2.2,3.8,1.2,1.2,0,0,1-.8,2Zm-34.7-.9a1.2,1.2,0,0,1-.5-2.3,25.9,25.9,0,0,0,4.2-2.5,1.2,1.2,0,0,1,1.4,1.9,28.3,28.3,0,0,1-4.5,2.7Zm57-1.8h-.5a1.2,1.2,0,0,1-.5-1.6,8.1,8.1,0,0,0,.9-3.8c0-.2,0-.3,0-.5a1.2,1.2,0,1,1,2.4-.1c0,.2,0,.4,0,.6a10.5,10.5,0,0,1-1.2,4.9A1.2,1.2,0,0,1,343.3,246.9Zm-110.9-.3-.7-.2-1.2-1-2.7-2.5a1.2,1.2,0,0,1,1.6-1.7l2.6,2.5,1,.9a1.2,1.2,0,0,1-.7,2.1Zm61.8-4-.7-.2a1.2,1.2,0,0,1-.2-1.7l.2-.3a22.5,22.5,0,0,1,3.2-3.6,1.2,1.2,0,0,1,1.6,1.7,20.1,20.1,0,0,0-2.9,3.3l-.3.4A1.2,1.2,0,0,1,294.3,242.6Zm24.1-2.3h-.1a1.2,1.2,0,0,1-1.1-1.3,30.1,30.1,0,0,1,1-5.2,1.2,1.2,0,1,1,2.3.7,27.7,27.7,0,0,0-.9,4.8A1.2,1.2,0,0,1,318.3,240.3Zm-93.4-.5a1.2,1.2,0,0,1-.8-.3l-3.7-3.4a1.2,1.2,0,1,1,1.6-1.8l3.8,3.4a1.2,1.2,0,0,1-.8,2.1Zm118.2-2.6a1.2,1.2,0,0,1-1.1-.7,10.8,10.8,0,0,0-2.8-3.6,1.2,1.2,0,1,1,1.5-1.8,13.2,13.2,0,0,1,3.4,4.4,1.2,1.2,0,0,1-.6,1.6Zm-41.5-1.4a1.2,1.2,0,0,1-.6-2.2,39.6,39.6,0,0,1,4.6-2.5,1.2,1.2,0,0,1,1,2.1,37.2,37.2,0,0,0-4.3,2.4ZM217.3,233a1.2,1.2,0,0,1-.8-.3l-3.9-3.2a1.2,1.2,0,1,1,1.4-1.9l4,3.2a1.2,1.2,0,0,1-.8,2.1Zm93.4-1.6a1.2,1.2,0,0,1-.4-2.3l5-1.4a1.2,1.2,0,1,1,.5,2.3l-4.8,1.3Zm24.9-.7h-.4a22.4,22.4,0,0,0-4.6-1.3,1.2,1.2,0,0,1,.4-2.3,24.8,24.8,0,0,1,5.1,1.4,1.2,1.2,0,0,1-.4,2.3Zm-14.5,0h-.5a6.3,6.3,0,0,0-1.1-2.4,1.2,1.2,0,0,1,1-1.3h.8l1.6-2.3a1.2,1.2,0,0,1,1.9,1.4l-.5.7h1.5a1.2,1.2,0,0,1,0,2.4h-3l-.5,1A1.2,1.2,0,0,1,321.1,230.6Zm-111.8-3.8-.7-.2-4.2-2.7a1.2,1.2,0,0,1,1.2-2l4.3,2.8a1.2,1.2,0,0,1-.7,2.2Zm117.9-4.3a1.2,1.2,0,0,1-.8-2,38.7,38.7,0,0,1,4-3.3,1.2,1.2,0,0,1,1.4,1.9,36.2,36.2,0,0,0-3.8,3.1A1.2,1.2,0,0,1,327.2,222.5Zm-126.6-1h-.5l-4.5-2.1a1.2,1.2,0,0,1,.9-2.2l4.7,2.2a1.2,1.2,0,0,1-.5,2.2Zm-34-1.1a1.2,1.2,0,0,1-.6-2.2,33.3,33.3,0,0,1,4.8-2.2,1.2,1.2,0,0,1,.8,2.2,30.9,30.9,0,0,0-4.4,2.1Zm24.5-2.6h-.3a37.1,37.1,0,0,0-4.8-1,1.2,1.2,0,1,1,.3-2.3,39.4,39.4,0,0,1,5.1,1.1,1.2,1.2,0,0,1-.3,2.3Zm226.4-.5a1.2,1.2,0,0,1-1.1-.7,7.7,7.7,0,0,0-3-3.1,1.2,1.2,0,0,1,1.3-2,9.9,9.9,0,0,1,3.9,4.1,1.2,1.2,0,0,1-.6,1.6Zm-241.4-.4a1.2,1.2,0,0,1-.2-2.3,31.2,31.2,0,0,1,5.2-.5,1.2,1.2,0,1,1,0,2.4,28.8,28.8,0,0,0-4.8.5Zm159.2-.4a1.2,1.2,0,0,1-.6-2.2l4.6-2.3a1.2,1.2,0,1,1,1,2.2l-4.4,2.2Zm9.2-4.2a1.2,1.2,0,0,1-.4-2.3l4.9-1.6a1.2,1.2,0,0,1,.7,2.3l-4.8,1.5Zm65-.9h-.4l-4.7-1.5a1.2,1.2,0,1,1,.6-2.3l4.9,1.6a1.2,1.2,0,0,1-.4,2.3Zm-55.2-1.9a1.2,1.2,0,0,1-.3-2.3l5-1a1.2,1.2,0,0,1,.4,2.3l-4.9,1Zm45.4-.8h-.2l-4.9-.8a1.2,1.2,0,0,1,.3-2.3l5.1.8a1.2,1.2,0,0,1-.2,2.3Zm-35.4-.9a1.2,1.2,0,0,1-.1-2.4l5.1-.5a1.2,1.2,0,0,1,.2,2.4l-5,.5Zm25.3-.4h-.1l-5-.3a1.2,1.2,0,0,1,.1-2.4l5.1.3a1.2,1.2,0,0,1-.1,2.4Zm-15.2-.4a1.2,1.2,0,0,1,0-2.4h5.1a1.2,1.2,0,0,1,0,2.4h-5.1Z" style="fill:#fff"/><path d="M176.6,183.1H146.2a3.4,3.4,0,0,0-3.4,3.4v17.1a3.4,3.4,0,0,0,3.4,3.4h1l3.5,6.7a1.3,1.3,0,0,0,2.2.1L157,207h19.7a3.4,3.4,0,0,0,3.4-3.4V186.5A3.4,3.4,0,0,0,176.6,183.1Z" style="fill:#cfdbff"/><path d="M160.8,179.3h0a2,2,0,0,1-2-2v-6.1a2,2,0,0,1,2-2h0a2,2,0,0,1,2,2v6.1A2,2,0,0,1,160.8,179.3Z" style="fill:#cfdbff"/><path d="M168,178.7h0a2,2,0,0,1,0-2.8l4.3-4.3a2,2,0,0,1,2.8,0h0a2,2,0,0,1,0,2.8l-4.3,4.3A2,2,0,0,1,168,178.7Z" style="fill:#cfdbff"/><path d="M153.5,178.7h0a2,2,0,0,0,0-2.8l-4.3-4.3a2,2,0,0,0-2.8,0h0a2,2,0,0,0,0,2.8l4.3,4.3A2,2,0,0,0,153.5,178.7Z" style="fill:#cfdbff"/><path d="M174.8,181.6H144.3a3.4,3.4,0,0,0-3.4,3.4v17.1a3.4,3.4,0,0,0,3.4,3.4h1l3.5,6.7a1.3,1.3,0,0,0,2.2.1l4.1-6.7h19.7a3.4,3.4,0,0,0,3.4-3.4V185.1A3.4,3.4,0,0,0,174.8,181.6Z" style="fill:#fff"/><rect x="147.1" y="186.1" width="25.1" height="15.2" rx="0.9" ry="0.9" style="fill:#c4204a"/><path d="M172.2,187v.7l-10.6,7.6a2.9,2.9,0,0,1-3.5,0l-11-7.9V187a.9.9,0,0,1,.9-.9h23.2A.9.9,0,0,1,172.2,187Z" style="fill:#e62552"/><path d="M159.4,178h0a2,2,0,0,1-2-2v-6.1a2,2,0,0,1,2-2h0a2,2,0,0,1,2,2V176A2,2,0,0,1,159.4,178Z" style="fill:#fff"/><path d="M166.7,177.4h0a2,2,0,0,1,0-2.8l4.3-4.3a2,2,0,0,1,2.8,0h0a2,2,0,0,1,0,2.8l-4.3,4.3A2,2,0,0,1,166.7,177.4Z" style="fill:#fff"/><path d="M152.1,177.4h0a2,2,0,0,0,0-2.8l-4.3-4.3a2,2,0,0,0-2.8,0h0a2,2,0,0,0,0,2.8l4.3,4.3A2,2,0,0,0,152.1,177.4Z" style="fill:#fff"/><path d="M173.2,98.1h43.3a9.3,9.3,0,0,1,9.3,9.3v17.4a9.3,9.3,0,0,1-9.3,9.3H186.6l1,19.5a1.4,1.4,0,0,1-2.6.6L175.9,134h-2.7a9.3,9.3,0,0,1-9.3-9.3V107.3A9.3,9.3,0,0,1,173.2,98.1Z" style="fill:#7f99eb"/><path d="M171.9,109.6h45a3.2,3.2,0,0,0,3.2-3.2h0a3.2,3.2,0,0,0-3.2-3.2h-45a3.2,3.2,0,0,0-3.2,3.2h0A3.2,3.2,0,0,0,171.9,109.6Z" style="fill:#e3eaff"/><path d="M171.9,119h45a3.2,3.2,0,0,0,3.2-3.2h0a3.2,3.2,0,0,0-3.2-3.2h-45a3.2,3.2,0,0,0-3.2,3.2h0A3.2,3.2,0,0,0,171.9,119Z" style="fill:#e3eaff"/><rect x="183.7" y="122" width="36.4" height="6.33" rx="3.2" ry="3.2" transform="translate(403.8 250.4) rotate(-180)" style="fill:#e3eaff"/><rect x="427.5" y="95.7" width="41.1" height="22.8" rx="11.4" ry="11.4" style="fill:#fff"/><rect x="397.2" y="128.4" width="53.4" height="29.6" rx="14.8" ry="14.8" style="fill:#fff"/><polygon points="434 118.5 434 130.3 441.4 118.5 434 118.5" style="fill:#fff"/><path d="M443,156.6v11a.8.8,0,0,1-1.6.4l-5.8-11.4Z" style="fill:#fff"/><path d="M462,104.9H434.2a2.4,2.4,0,0,1-2.4-2.4h0a2.4,2.4,0,0,1,2.4-2.4H462a2.4,2.4,0,0,1,2.4,2.4h0A2.4,2.4,0,0,1,462,104.9Z" style="fill:#e3eaff"/><rect x="431.7" y="107.9" width="32.7" height="4.88" rx="2.4" ry="2.4" style="fill:#e3eaff"/><path d="M443.6,137.6h-39a2.7,2.7,0,0,1-2.7-2.7h0a2.7,2.7,0,0,1,2.7-2.7h39a2.7,2.7,0,0,1,2.7,2.7h0A2.7,2.7,0,0,1,443.6,137.6Z" style="fill:#e3eaff"/><path d="M443.6,146.2h-39a2.7,2.7,0,0,1-2.7-2.7h0a2.7,2.7,0,0,1,2.7-2.7h39a2.7,2.7,0,0,1,2.7,2.7h0A2.7,2.7,0,0,1,443.6,146.2Z" style="fill:#e3eaff"/><rect x="416.7" y="149.4" width="29.6" height="5.43" rx="2.7" ry="2.7" style="fill:#e3eaff"/><path d="M79.8,138.8h-.1a1.2,1.2,0,0,1-1.1-1.2,24.5,24.5,0,0,1,.9-5.3,1.2,1.2,0,0,1,2.3.7,22,22,0,0,0-.8,4.7A1.2,1.2,0,0,1,79.8,138.8Zm2.8-9.7H82a1.2,1.2,0,0,1-.5-1.6,22.9,22.9,0,0,1,3-4.4,1.2,1.2,0,0,1,1.8,1.6,20.6,20.6,0,0,0-2.7,3.9A1.2,1.2,0,0,1,82.5,129.1Zm6.7-7.5a1.2,1.2,0,0,1-.7-2.2,24.5,24.5,0,0,1,4.7-2.5,1.2,1.2,0,0,1,.9,2.2,22.2,22.2,0,0,0-4.2,2.3Zm9.3-3.9a1.2,1.2,0,0,1-.2-2.3,37.7,37.7,0,0,1,5.2-.7,1.2,1.2,0,1,1,.2,2.4,35.3,35.3,0,0,0-4.9.7Zm14-.6h-3.9a1.2,1.2,0,1,1,.1-2.4h5a1.2,1.2,0,0,1,.1,2.4Zm6.2-.7a1.2,1.2,0,0,1-.3-2.3,19.4,19.4,0,0,0,4.5-1.7,1.2,1.2,0,0,1,1.1,2.1,21.8,21.8,0,0,1-5,1.9Zm8.8-4.7a1.2,1.2,0,0,1-.8-2,18.9,18.9,0,0,0,3-3.7,1.2,1.2,0,1,1,2,1.3,21.2,21.2,0,0,1-3.4,4.1A1.2,1.2,0,0,1,127.5,111.6Zm5.4-8.5h-.4a1.2,1.2,0,0,1-.7-1.5,26.4,26.4,0,0,0,1.2-4.7,1.2,1.2,0,1,1,2.3.4,28.8,28.8,0,0,1-1.3,5.1A1.2,1.2,0,0,1,132.9,103.2Zm157.6-1.9a1.2,1.2,0,0,1-1-.6c-.8-1.4-1.8-2.8-2.7-4.2a1.2,1.2,0,0,1,1.9-1.4c1,1.4,2,2.9,2.8,4.3a1.2,1.2,0,0,1-.4,1.6ZM125.7,93.4h-.1a34.3,34.3,0,0,1-5.2-.7,1.2,1.2,0,1,1,.5-2.3,31.9,31.9,0,0,0,4.8.6,1.2,1.2,0,0,1-.1,2.4Zm5.1,0a1.2,1.2,0,0,1-.1-2.4l2.6-.2a30.3,30.3,0,0,0-.4-3.7,1.2,1.2,0,0,1,2.3-.4,32.7,32.7,0,0,1,.4,3.8,1.2,1.2,0,0,1,.3,2.3h-.8l-.7.2h-.4l-3.3.3ZM284.6,93a1.2,1.2,0,0,1-.9-.4l-3.3-3.7a1.2,1.2,0,1,1,1.7-1.6l3.4,3.8a1.2,1.2,0,0,1-.9,1.9ZM140.8,92a1.2,1.2,0,0,1-.2-2.3l4.9-1.2a1.2,1.2,0,0,1,.6,2.3l-5,1.2Zm-25-.8h-.5a22.7,22.7,0,0,1-3.9-2.2l-.7-.5a1.2,1.2,0,1,1,1.4-1.9l.7.5a20.4,20.4,0,0,0,3.5,1.9,1.2,1.2,0,0,1-.5,2.3Zm34.8-1.8a1.2,1.2,0,0,1-.3-2.3l4.8-1.6a1.2,1.2,0,0,1,.8,2.2L151,89.3Zm9.6-3.3a1.2,1.2,0,0,1-.4-2.3l4.7-1.8a1.2,1.2,0,1,1,.9,2.2L160.7,86Zm117.3-.4a1.2,1.2,0,0,1-.8-.3L273,82.1a1.2,1.2,0,0,1,1.5-1.9l3.9,3.3a1.2,1.2,0,0,1-.8,2.1Zm-170-.2a1.2,1.2,0,0,1-.8-.3,16.7,16.7,0,0,1-3.3-4.3,1.2,1.2,0,1,1,2.1-1.1,14.4,14.4,0,0,0,2.8,3.7,1.2,1.2,0,0,1-.8,2Zm25.3-2.2a1.2,1.2,0,0,1-1.1-.8,21,21,0,0,0-2.1-4.3,1.2,1.2,0,0,1,2-1.3,23.4,23.4,0,0,1,2.3,4.8,1.2,1.2,0,0,1-.7,1.5Zm36.8-.9a1.2,1.2,0,0,1-.5-2.3l4.7-2a1.2,1.2,0,1,1,.9,2.2l-4.7,2Zm100-3-.7-.2-4.2-2.7a1.2,1.2,0,1,1,1.2-2l4.3,2.8a1.2,1.2,0,0,1-.7,2.2Zm-90.7-1a1.2,1.2,0,0,1-.5-2.3l4.6-2.1a1.2,1.2,0,0,1,1,2.2l-4.6,2.1Zm-74.9-1.8h-.5a1.2,1.2,0,0,1-.6-1.6,8.1,8.1,0,0,1,4.2-4,1.2,1.2,0,1,1,1,2.2,5.8,5.8,0,0,0-3.1,2.7A1.2,1.2,0,0,1,104.1,76.5Zm23.2-1.6-.7-.2a9.3,9.3,0,0,0-2.6-1.4l-1.6-.5a1.2,1.2,0,0,1,.6-2.3l1.7.5a11.7,11.7,0,0,1,3.3,1.8,1.2,1.2,0,0,1-.7,2.1Zm61-.8a1.2,1.2,0,0,1-.5-2.3l3.2-1.5,1.4-.7a1.2,1.2,0,0,1,1,2.2l-1.4.7L188.8,74ZM261,74h-.6L256,71.6a1.2,1.2,0,1,1,1-2.2l4.6,2.3A1.2,1.2,0,0,1,261,74ZM112.6,71.9a1.2,1.2,0,0,1-.1-2.4,25.9,25.9,0,0,1,5.3,0,1.2,1.2,0,0,1-.2,2.4,23.5,23.5,0,0,0-4.8,0Zm84.9-2a1.2,1.2,0,0,1-.5-2.3l1.6-.7,3.1-1.3a1.2,1.2,0,0,1,.8,2.2l-3,1.2-1.6.7Zm54.3-.1h-.4L246.6,68a1.2,1.2,0,0,1,.7-2.3l4.8,1.7a1.2,1.2,0,0,1-.4,2.3Zm-9.7-3.1h-.3L237,65.5a1.2,1.2,0,1,1,.4-2.3l5,1.1a1.2,1.2,0,0,1-.3,2.3ZM207,66.3a1.2,1.2,0,0,1-.3-2.3l5.1-1.1a1.2,1.2,0,0,1,.4,2.3l-4.8,1.1Zm25.2-1.5H232l-5-.4a1.2,1.2,0,1,1,.1-2.4l5.1.5a1.2,1.2,0,0,1-.1,2.4ZM217,64.5a1.2,1.2,0,0,1-.1-2.4l5.2-.3a1.2,1.2,0,0,1,0,2.4l-5,.3Z" style="fill:#fff"/><polygon points="291.5 93.1 287.7 99.4 320.7 121.9 291.5 93.1" style="fill:#bdcdff"/><polygon points="284.3 106.9 286.3 114.1 319.2 120.9 284.3 106.9" style="fill:#bdcdff"/><polygon points="320.7 121.9 265 102.9 284.3 96.1 320.7 121.9" style="fill:#fff"/><polygon points="291.5 93.1 320.7 121.9 303.6 88 291.5 93.1" style="fill:#fff"/><path d="M489.1,48.6a1.2,1.2,0,0,1,0-2.4,19.1,19.1,0,0,0,4.7-.6,1.2,1.2,0,0,1,.6,2.3,21.5,21.5,0,0,1-5.3.6Zm-5-.5h-.2a44.8,44.8,0,0,1-5.1-1.2,1.2,1.2,0,1,1,.7-2.3l4.8,1.1a1.2,1.2,0,0,1-.2,2.4Zm14.7-2.2a1.2,1.2,0,0,1-.7-2.2,12.8,12.8,0,0,0,3-2.8,1.2,1.2,0,0,1,1.9,1.4,15.2,15.2,0,0,1-3.5,3.4Zm-81.9-.3-.7-.2a1.2,1.2,0,0,1-.3-1.7,34.4,34.4,0,0,1,3.4-4,1.2,1.2,0,0,1,1.7,1.7,32,32,0,0,0-3.2,3.7A1.2,1.2,0,0,1,416.9,45.7Zm57.5-.3h-.4l-4.7-2a1.2,1.2,0,0,1,1-2.1l4.6,2a1.2,1.2,0,0,1-.4,2.3ZM465.1,41h-.6l-4.4-2.6a1.2,1.2,0,1,1,1.2-2l4.3,2.5a1.2,1.2,0,0,1-.6,2.2Zm-41.2-2.6a1.2,1.2,0,0,1-.7-2.1,41.9,41.9,0,0,1,4.3-3,1.2,1.2,0,0,1,1.2,2,39.5,39.5,0,0,0-4,2.8Zm32.6-2.7-.7-.2-1.6-1.1-2.6-1.6a1.2,1.2,0,0,1,1.1-2.1l2.9,1.7,1.5,1.1a1.2,1.2,0,0,1-.7,2.2Zm-23.9-2.6a1.2,1.2,0,0,1-.5-2.3,31.4,31.4,0,0,1,5-1.7,1.2,1.2,0,1,1,.6,2.3,29,29,0,0,0-4.6,1.6Zm14.9-1.9h-.3a19.7,19.7,0,0,0-4.8-.4,1.2,1.2,0,1,1-.1-2.4,22,22,0,0,1,5.3.5,1.2,1.2,0,0,1-.3,2.3Z" style="fill:#fff"/><polygon points="415.7 40.9 417.4 46.3 388.7 57 415.7 40.9" style="fill:#bdcdff"/><polygon points="418.6 52.5 415.8 57.5 390 56.5 418.6 52.5" style="fill:#bdcdff"/><polygon points="388.7 57 433.7 53.1 420.6 44.5 388.7 57" style="fill:#fff"/><polygon points="415.7 40.9 388.7 57 407.6 34.9 415.7 40.9" style="fill:#fff"/><path d="M378.9,103.1a8.1,8.1,0,0,1,5-1.6c4.2,0,6.5,2.3,6.5,5.5a8.3,8.3,0,0,1-2.7,5.7c-2.3,2.5-4,3.7-5.1,3.7a1.8,1.8,0,0,1-1.8-1.8c0-.9.8-1.7,2.2-3l.2-.2c1.6-1.5,2.1-2.3,2.1-3.3a1.8,1.8,0,0,0-2.1-1.9,6.7,6.7,0,0,0-2,.4l-1.7.4a1.9,1.9,0,0,1-1.9-2A2.3,2.3,0,0,1,378.9,103.1Zm4.3,20.7a3.1,3.1,0,0,1-3.2-3.2,3,3,0,0,1,3.2-2.9,3,3,0,0,1,2.9,2.9A3,3,0,0,1,383.2,123.8Z" style="fill:#fff"/><path d="M196.8,20.1a6.4,6.4,0,0,1,4-1.3c3.3,0,5.1,1.8,5.1,4.4a6.5,6.5,0,0,1-2.2,4.5c-1.8,1.9-3.2,2.9-4,2.9a1.4,1.4,0,0,1-1.4-1.4c0-.7.6-1.4,1.7-2.4l.2-.2c1.3-1.2,1.6-1.8,1.6-2.6a1.5,1.5,0,0,0-1.6-1.5l-1.6.3-1.3.3a1.5,1.5,0,0,1-1.5-1.6A1.9,1.9,0,0,1,196.8,20.1Zm3.4,16.4a2.4,2.4,0,0,1-2.5-2.5,2.4,2.4,0,0,1,2.5-2.3,2.4,2.4,0,0,1,2.3,2.3A2.4,2.4,0,0,1,200.2,36.5Z" style="fill:#fff"/><rect x="110.9" y="13" width="23.8" height="39.28" rx="1.4" ry="1.4" transform="translate(35.7 125.1) rotate(-61.6)" style="fill:#cdd8fa"/><path d="M145.1,32.7l-.6,1-20.2,2.6a4.6,4.6,0,0,1-4.8-2.5l-9.3-19.2.3-.6a1.4,1.4,0,0,1,2-.6l32,17.3A1.4,1.4,0,0,1,145.1,32.7Z" style="fill:#fff"/><path d="M336.8,69.6a9.2,9.2,0,1,1,9.2-9.2A9.2,9.2,0,0,1,336.8,69.6Zm0-15.9a6.7,6.7,0,1,0,6.7,6.7A6.7,6.7,0,0,0,336.8,53.7Z" style="fill:#fff"/><path d="M530.7,134.9a9.2,9.2,0,1,1,9.2-9.2A9.2,9.2,0,0,1,530.7,134.9Zm0-15.9a6.7,6.7,0,1,0,6.7,6.7A6.7,6.7,0,0,0,530.7,119Z" style="fill:#e3eaff"/><circle cx="352.2" cy="45.7" r="5.3" style="fill:#fff"/><circle cx="531.1" cy="104.9" r="5.3" style="fill:#e3eaff"/><circle cx="9.5" cy="177.2" r="7.5" style="fill:#7f99eb"/><path d="M8.9,182h0a1.1,1.1,0,0,1-.9-.5l-3.1-4.6a1.1,1.1,0,0,1,1.8-1.2l2.2,3.2,3.7-5.4a1.1,1.1,0,1,1,1.8,1.2l-4.6,6.7A1.1,1.1,0,0,1,8.9,182Z" style="fill:#fff"/><circle cx="15.5" cy="185.8" r="2.1" style="fill:#7f99eb"/></svg>